# xmcd
#
# Track frame offsets:
# 150
# 14203
# 35414
# 49850
# 59828
# 76131
# 88742
# 102921
# 116319
# 141448
# 165135
# 174542
#
# Disc length: 2516 seconds
#
#
# Revision: 0
# Processed by: cddbd v1.5.2PL0 Copyright (c) Steve Scherf et al.
# Submitted via: FreeRIP 2.941 
#
DISCID=9d09d20c
DTITLE=Tabea Anderfuhren - Who Can Ever Tell
DYEAR=2008
DGENRE=Country
TTITLE0=Roll Muddy River
TTITLE1=Hills Of Kosovo
TTITLE2=Who Can Ever Tell
TTITLE3=When Will I Be Loved
TTITLE4=Faded Love
TTITLE5=How Could I Give Up Myself
TTITLE6=Just Sorry
TTITLE7=Longsome Feeling
TTITLE8=My Children
TTITLE9=How Can It Be Over
TTITLE10=Start All Over Again
TTITLE11=Boat On The River
EXTD=
EXTT0=
EXTT1=
EXTT2=
EXTT3=
EXTT4=
EXTT5=
EXTT6=
EXTT7=
EXTT8=
EXTT9=
EXTT10=
EXTT11=
PLAYORDER=
